<svg xmlns="http://www.w3.org/2000/svg" xmlns:xlink="http://www.w3.org/1999/xlink" width="1920" zoomAndPan="magnify" viewBox="0 0 1440 809.999993" height="1080" preserveAspectRatio="xMidYMid meet" version="1.0"><defs><g/><clipPath id="124f16fa24"><path d="M 223 266.773438 L 331 266.773438 L 331 340 L 223 340 Z M 223 266.773438 " clip-rule="nonzero"/></clipPath><clipPath id="9dc59c96e2"><path d="M 363 374 L 449.4375 374 L 449.4375 480 L 363 480 Z M 363 374 " clip-rule="nonzero"/></clipPath><clipPath id="dbbcdddce9"><path d="M 157 493 L 222 493 L 222 543.523438 L 157 543.523438 Z M 157 493 " clip-rule="nonzero"/></clipPath><clipPath id="3e63484d91"><path d="M 1336 332.339844 L 1343.566406 332.339844 L 1343.566406 354.839844 L 1336 354.839844 Z M 1336 332.339844 " clip-rule="nonzero"/></clipPath><clipPath id="4b4ab85015"><path d="M 1312.816406 332.339844 L 1320 332.339844 L 1320 354.839844 L 1312.816406 354.839844 Z M 1312.816406 332.339844 " clip-rule="nonzero"/></clipPath></defs><rect x="-144" width="1728" fill="#ffffff" y="-80.999999" height="971.999992" fill-opacity="1"/><rect x="-144" width="1728" fill="#ffffff" y="-80.999999" height="971.999992" fill-opacity="1"/><g clip-path="url(#124f16fa24)"><path fill="#0050dc" d="M 229.128906 271.617188 L 232.171875 270.609375 L 235.269531 269.714844 L 238.425781 268.929688 L 241.617188 268.277344 L 244.847656 267.71875 L 248.097656 267.289062 L 251.363281 266.988281 L 254.667969 266.800781 L 257.953125 266.726562 L 261.257812 266.785156 L 264.5625 266.953125 L 267.867188 267.25 L 271.132812 267.660156 L 274.382812 268.203125 L 277.59375 268.855469 L 280.785156 269.621094 L 283.882812 270.5 L 286.945312 271.488281 L 289.949219 272.589844 L 292.902344 273.785156 L 295.777344 275.089844 L 298.59375 276.527344 L 301.339844 278.039062 L 303.988281 279.664062 L 306.566406 281.382812 L 309.050781 283.191406 L 311.457031 285.097656 L 313.753906 287.09375 L 315.976562 289.167969 L 318.085938 291.332031 L 320.101562 293.589844 L 322.023438 295.925781 L 323.253906 297.566406 L 324.394531 299.230469 L 325.421875 300.929688 L 326.375 302.664062 L 327.214844 304.402344 L 327.960938 306.175781 L 328.59375 307.984375 L 329.15625 309.816406 L 329.566406 311.457031 L 329.882812 313.101562 L 330.144531 314.78125 L 330.332031 316.480469 L 330.425781 318.195312 L 330.445312 319.953125 L 330.40625 321.707031 L 330.273438 323.480469 L 330.070312 325.289062 L 329.789062 327.121094 L 329.453125 328.949219 L 329.023438 330.816406 L 328.519531 332.703125 L 327.921875 334.605469 L 327.269531 336.546875 L 326.542969 338.488281 L 326.375 338.769531 L 326.167969 338.9375 L 325.90625 339.011719 L 325.609375 338.976562 L 323.460938 338.414062 L 321.3125 337.910156 L 319.167969 337.464844 L 317 337.050781 L 313.941406 336.566406 L 310.878906 336.195312 L 307.796875 335.894531 L 304.699219 335.707031 L 301.582031 335.613281 L 298.445312 335.613281 L 295.289062 335.707031 L 292.117188 335.914062 L 291.855469 335.914062 L 291.613281 335.839844 L 291.371094 335.726562 L 291.183594 335.558594 L 291.035156 335.335938 L 290.921875 335.109375 L 290.867188 334.847656 L 290.882812 334.589844 L 290.941406 334.328125 L 291.539062 332.570312 L 291.984375 330.855469 L 292.285156 329.210938 L 292.433594 327.625 L 292.433594 326.074219 L 292.394531 325.328125 L 292.304688 324.601562 L 292.171875 323.890625 L 292.003906 323.179688 L 291.816406 322.492188 L 291.574219 321.800781 L 291.070312 320.660156 L 290.453125 319.558594 L 289.726562 318.496094 L 288.886719 317.46875 L 288.457031 317.019531 L 287.972656 316.554688 L 286.871094 315.695312 L 285.582031 314.835938 L 283.734375 313.753906 L 282.371094 312.96875 L 281.398438 312.371094 L 280.578125 311.792969 L 279.832031 311.234375 L 279.179688 310.617188 L 278.582031 310 L 278.078125 309.347656 L 277.628906 308.65625 L 277.164062 307.703125 L 276.582031 306.25 L 275.78125 304.289062 L 275.128906 302.90625 L 274.773438 302.328125 L 274.4375 301.804688 L 274.082031 301.359375 L 273.707031 300.964844 L 273.296875 300.609375 L 272.832031 300.257812 L 271.804688 299.621094 L 270.574219 299.023438 L 268.816406 298.316406 L 266.894531 297.53125 L 265.511719 296.859375 L 264.898438 296.503906 L 264.335938 296.113281 L 263.796875 295.699219 L 263.308594 295.253906 L 262.300781 294.320312 L 261.015625 293.21875 L 259.652344 292.191406 L 258.25 291.21875 L 256.777344 290.304688 L 255.246094 289.464844 L 253.621094 288.683594 L 251.941406 287.933594 L 250.167969 287.246094 L 248.355469 286.609375 L 246.472656 286.03125 L 244.453125 285.488281 L 242.308594 284.964844 L 240.085938 284.480469 L 237.621094 283.996094 L 231.089844 282.855469 L 227.96875 282.335938 L 227.261719 282.183594 L 226.609375 282 L 226.011719 281.792969 L 225.46875 281.53125 L 224.984375 281.234375 L 224.535156 280.898438 L 224.164062 280.523438 L 223.84375 280.113281 L 223.640625 279.757812 L 223.453125 279.402344 L 223.304688 278.992188 L 223.191406 278.582031 L 223.078125 277.6875 L 223.097656 276.675781 L 223.171875 276.191406 L 223.339844 275.746094 L 223.582031 275.316406 L 223.902344 274.941406 L 224.683594 274.214844 L 225.507812 273.542969 L 226.363281 272.945312 L 227.261719 272.441406 L 228.175781 271.992188 Z M 229.128906 271.617188 " fill-opacity="1" fill-rule="nonzero"/></g><path fill="#0050dc" d="M 379.710938 354.246094 L 378.570312 354.695312 L 377.433594 355.214844 L 376.332031 355.796875 L 375.210938 356.449219 L 374.109375 357.175781 L 373.007812 357.960938 L 371.90625 358.820312 L 370.804688 359.773438 L 369.722656 360.761719 L 368.640625 361.824219 L 367.539062 362.984375 L 366.4375 364.214844 L 365.296875 365.539062 L 364.140625 366.960938 L 361.582031 370.28125 L 361.414062 370.449219 L 361.246094 370.5625 L 361.042969 370.636719 L 360.835938 370.65625 L 360.613281 370.617188 L 360.425781 370.542969 L 360.238281 370.433594 L 360.105469 370.28125 L 359.996094 370.09375 L 359.003906 367.96875 L 357.941406 365.894531 L 356.804688 363.859375 L 355.589844 361.898438 L 353.945312 359.511719 L 352.191406 357.195312 L 350.324219 354.972656 L 348.328125 352.828125 L 346.199219 350.753906 L 343.957031 348.757812 L 341.585938 346.835938 L 339.105469 345.003906 L 338.882812 344.800781 L 338.710938 344.558594 L 338.601562 344.296875 L 338.5625 343.996094 L 338.582031 343.71875 L 338.65625 343.417969 L 338.804688 343.175781 L 339.011719 342.953125 L 339.253906 342.785156 L 340.488281 342.074219 L 341.679688 341.289062 L 343.101562 340.226562 L 344.425781 339.03125 L 345.714844 337.722656 L 346.945312 336.25 L 348.121094 334.679688 L 349.335938 332.890625 L 350.585938 330.855469 L 352.246094 327.980469 L 354.300781 324.449219 L 355.011719 323.3125 L 355.777344 322.191406 L 356.558594 321.089844 L 357.417969 320.007812 L 358.296875 318.945312 L 359.230469 317.898438 L 360.21875 316.851562 L 361.246094 315.84375 L 362.308594 314.835938 L 363.429688 313.847656 L 364.585938 312.875 L 365.78125 311.925781 L 367.035156 310.992188 L 368.320312 310.074219 L 369.664062 309.160156 L 371.046875 308.285156 L 373.511719 306.828125 L 374.761719 306.15625 L 376.011719 305.539062 L 377.261719 304.960938 L 378.515625 304.417969 L 379.765625 303.914062 L 381.015625 303.449219 L 382.285156 303.019531 L 383.554688 302.644531 L 384.824219 302.308594 L 386.09375 302.011719 L 387.382812 301.75 L 388.652344 301.542969 L 389.941406 301.375 L 391.226562 301.226562 L 392.722656 301.132812 L 394.234375 301.078125 L 395.726562 301.097656 L 397.238281 301.152344 L 398.75 301.265625 L 400.261719 301.449219 L 401.792969 301.675781 L 403.324219 301.957031 L 404.464844 302.214844 L 405.492188 302.550781 L 406.441406 302.925781 L 407.300781 303.375 L 408.085938 303.878906 L 408.777344 304.4375 L 409.375 305.054688 L 409.878906 305.707031 L 410.324219 306.472656 L 410.660156 307.292969 L 410.921875 308.171875 L 411.089844 309.105469 L 411.164062 310.113281 L 411.148438 311.175781 L 411.035156 312.316406 L 410.828125 313.492188 L 410.175781 316.40625 L 409.449219 319.242188 L 408.625 322.003906 L 407.695312 324.65625 L 406.683594 327.234375 L 405.601562 329.714844 L 404.40625 332.085938 L 403.136719 334.363281 L 401.792969 336.546875 L 400.355469 338.621094 L 398.84375 340.597656 L 397.238281 342.464844 L 395.558594 344.222656 L 393.804688 345.863281 L 391.957031 347.414062 L 390.050781 348.851562 L 388.855469 349.671875 L 387.625 350.4375 L 386.375 351.183594 L 385.085938 351.875 L 383.796875 352.527344 L 382.453125 353.144531 L 381.089844 353.703125 Z M 395.953125 324.578125 L 396.148438 324.707031 L 396.378906 324.792969 L 396.640625 324.835938 L 396.929688 324.832031 L 397.246094 324.785156 L 397.582031 324.695312 L 398.3125 324.386719 L 399.089844 323.917969 L 399.882812 323.308594 L 400.667969 322.578125 L 401.410156 321.761719 L 402.082031 320.882812 L 402.65625 319.980469 L 403.113281 319.089844 L 403.433594 318.242188 L 403.605469 317.46875 L 403.632812 317.121094 L 403.621094 316.800781 L 403.570312 316.515625 L 403.480469 316.269531 L 403.355469 316.058594 L 403.195312 315.886719 L 402.996094 315.757812 L 402.765625 315.671875 L 402.503906 315.628906 L 402.214844 315.632812 L 401.902344 315.679688 L 401.5625 315.769531 L 400.835938 316.078125 L 400.058594 316.546875 L 399.261719 317.15625 L 398.480469 317.882812 L 397.738281 318.703125 L 397.066406 319.578125 L 396.492188 320.480469 L 396.035156 321.375 L 395.714844 322.222656 L 395.542969 322.996094 L 395.515625 323.34375 L 395.527344 323.660156 L 395.574219 323.945312 L 395.664062 324.195312 L 395.789062 324.40625 Z M 395.953125 324.578125 " fill-opacity="1" fill-rule="nonzero"/><path fill="#0050dc" d="M 277.460938 346.609375 L 276.921875 346.441406 L 276.433594 346.144531 L 276.023438 345.75 L 275.726562 345.265625 L 275.484375 344.667969 L 275.371094 344.144531 L 275.390625 343.679688 L 275.519531 343.289062 L 275.6875 343.042969 L 275.929688 342.839844 L 276.230469 342.671875 L 276.585938 342.539062 L 279.347656 341.773438 L 282.074219 341.140625 L 284.796875 340.617188 L 287.488281 340.246094 L 290.175781 340 L 292.84375 339.890625 L 295.476562 339.910156 L 298.109375 340.058594 L 298.5 340.113281 L 298.875 340.207031 L 299.265625 340.355469 L 299.621094 340.542969 L 299.957031 340.765625 L 300.273438 341.027344 L 300.554688 341.308594 L 300.796875 341.644531 L 301.003906 341.980469 L 301.171875 342.355469 L 301.300781 342.746094 L 301.394531 343.136719 L 301.433594 343.550781 L 301.414062 343.941406 L 301.375 344.351562 L 301.265625 344.742188 L 301.132812 345.136719 L 300.945312 345.492188 L 300.703125 345.863281 L 300.460938 346.179688 L 300.164062 346.441406 L 299.863281 346.667969 L 299.359375 346.929688 L 298.761719 347.097656 L 298.089844 347.1875 L 297.101562 347.207031 L 295.851562 347.265625 L 293.441406 347.46875 L 291.070312 347.582031 L 288.738281 347.617188 L 286.421875 347.582031 L 284.125 347.46875 L 281.886719 347.265625 L 279.664062 346.984375 Z M 277.460938 346.609375 " fill-opacity="1" fill-rule="nonzero"/><path fill="#0050dc" d="M 324.675781 352.191406 L 320.792969 350.996094 L 316.925781 349.914062 L 313.082031 348.925781 L 309.234375 348.046875 L 308.621094 347.878906 L 308.117188 347.636719 L 307.703125 347.339844 L 307.425781 346.964844 L 307.257812 346.535156 L 307.199219 346.050781 L 307.257812 345.492188 L 307.425781 344.875 L 307.796875 343.792969 L 308.152344 342.933594 L 308.601562 342.203125 L 309.125 341.605469 L 309.402344 341.363281 L 309.722656 341.140625 L 310.058594 340.953125 L 310.410156 340.804688 L 311.175781 340.582031 L 312.015625 340.507812 L 312.949219 340.5625 L 314.742188 340.804688 L 316.496094 341.085938 L 318.234375 341.421875 L 319.914062 341.792969 L 321.574219 342.222656 L 323.21875 342.671875 L 324.824219 343.175781 L 326.390625 343.734375 L 327.921875 344.332031 L 329.433594 344.96875 L 330.910156 345.660156 L 332.347656 346.386719 L 333.765625 347.152344 L 335.148438 347.972656 L 336.492188 348.832031 L 337.816406 349.726562 L 339.273438 350.8125 L 340.671875 351.949219 L 342.054688 353.144531 L 343.378906 354.375 L 344.667969 355.683594 L 345.9375 357.046875 L 347.152344 358.464844 L 348.308594 359.941406 L 349.449219 361.472656 L 350.53125 363.058594 L 351.59375 364.699219 L 352.601562 366.398438 L 353.574219 368.152344 L 354.507812 369.964844 L 355.382812 371.832031 L 356.242188 373.753906 L 356.429688 374.296875 L 356.523438 374.746094 L 356.484375 375.117188 L 356.355469 375.417969 L 356.113281 375.621094 L 355.757812 375.734375 L 355.292969 375.789062 L 354.710938 375.734375 L 343.996094 374.257812 L 343.417969 374.148438 L 342.859375 373.960938 L 342.335938 373.71875 L 341.832031 373.398438 L 341.363281 373.046875 L 340.953125 372.632812 L 340.582031 372.167969 L 340.28125 371.664062 L 339.609375 370.394531 L 337.332031 366.175781 L 336.359375 364.476562 L 335.429688 362.945312 L 334.496094 361.488281 L 333.578125 360.125 L 332.664062 358.894531 L 331.769531 357.753906 L 330.871094 356.691406 L 329.957031 355.738281 L 329.0625 354.878906 L 328.183594 354.152344 L 327.289062 353.5 L 326.429688 352.957031 L 325.535156 352.527344 Z M 324.675781 352.191406 " fill-opacity="1" fill-rule="nonzero"/><path fill="#0050dc" d="M 269.023438 346.816406 L 270.03125 347.675781 L 271.058594 348.421875 L 272.140625 349.113281 L 273.242188 349.710938 L 274.679688 350.363281 L 276.171875 350.886719 L 277.742188 351.277344 L 279.367188 351.578125 L 281.066406 351.746094 L 282.839844 351.800781 L 284.707031 351.746094 L 286.648438 351.558594 L 287.46875 351.5 L 288.140625 351.578125 L 288.402344 351.652344 L 288.625 351.746094 L 288.8125 351.894531 L 288.960938 352.042969 L 289.054688 352.230469 L 289.109375 352.453125 L 289.128906 352.695312 L 289.09375 352.976562 L 288.925781 353.628906 L 288.570312 354.375 L 286.402344 358.445312 L 285.976562 359.15625 L 285.46875 359.789062 L 284.890625 360.371094 L 284.238281 360.890625 L 283.546875 361.320312 L 282.800781 361.65625 L 282.015625 361.917969 L 281.214844 362.085938 L 276.789062 362.722656 L 272.289062 363.335938 L 267.71875 363.898438 L 263.085938 364.4375 L 262.042969 364.511719 L 261.015625 364.511719 L 260.007812 364.421875 L 259.015625 364.234375 L 257.914062 363.933594 L 256.851562 363.523438 L 255.117188 362.816406 L 253.34375 362.199219 L 251.53125 361.675781 L 249.683594 361.246094 L 247.777344 360.910156 L 245.835938 360.648438 L 243.859375 360.5 L 241.824219 360.445312 L 241.039062 360.386719 L 240.273438 360.277344 L 239.734375 360.125 L 239.210938 359.957031 L 238.6875 359.734375 L 238.183594 359.472656 L 237.921875 359.285156 L 237.753906 359.0625 L 237.640625 358.800781 L 237.621094 358.503906 L 237.714844 357.980469 L 237.941406 357.476562 L 238.277344 357.066406 L 238.707031 356.730469 L 241.933594 354.9375 L 245.183594 353.273438 L 248.449219 351.746094 L 251.738281 350.324219 L 255.039062 349.019531 L 258.34375 347.84375 L 261.6875 346.777344 L 265.046875 345.84375 L 265.570312 345.75 L 266.109375 345.714844 L 266.632812 345.734375 L 267.15625 345.828125 L 267.679688 345.996094 L 268.144531 346.199219 L 268.613281 346.480469 Z M 269.023438 346.816406 " fill-opacity="1" fill-rule="nonzero"/><path fill="#0050dc" d="M 335 386.226562 L 332.703125 385.328125 L 330.40625 384.507812 L 328.109375 383.742188 L 325.8125 383.050781 L 323.5 382.417969 L 321.203125 381.855469 L 318.886719 381.371094 L 316.589844 380.941406 L 316.160156 380.832031 L 315.734375 380.679688 L 315.339844 380.476562 L 314.96875 380.234375 L 314.613281 379.933594 L 314.3125 379.597656 L 314.050781 379.226562 L 313.847656 378.832031 L 312.839844 376.777344 L 311.738281 374.855469 L 310.5625 373.082031 L 309.925781 372.242188 L 309.292969 371.441406 L 308.621094 370.675781 L 307.949219 369.945312 L 307.238281 369.238281 L 306.511719 368.566406 L 305.746094 367.949219 L 304.980469 367.351562 L 304.175781 366.792969 L 303.375 366.269531 L 302.515625 365.765625 L 301.636719 365.296875 L 300.761719 364.867188 L 299.828125 364.476562 L 298.894531 364.121094 L 297.941406 363.804688 L 296.953125 363.503906 L 295.945312 363.261719 L 295.289062 363.09375 L 294.710938 362.890625 L 294.1875 362.683594 L 293.722656 362.421875 L 293.347656 362.144531 L 293.011719 361.84375 L 292.769531 361.507812 L 292.582031 361.152344 L 292.453125 360.761719 L 292.394531 360.351562 L 292.394531 359.902344 L 292.472656 359.4375 L 292.621094 358.933594 L 292.824219 358.410156 L 293.085938 357.867188 L 293.421875 357.289062 L 293.910156 356.523438 L 294.300781 355.90625 L 294.730469 355.347656 L 295.179688 354.84375 L 295.644531 354.375 L 296.128906 353.949219 L 296.632812 353.574219 L 297.15625 353.238281 L 297.71875 352.957031 L 298.277344 352.734375 L 298.875 352.527344 L 299.492188 352.398438 L 300.125 352.285156 L 300.777344 352.25 L 301.46875 352.230469 L 302.160156 352.265625 L 302.886719 352.359375 L 305.277344 352.695312 L 309.980469 353.367188 L 313.621094 354.003906 L 315.285156 354.359375 L 316.832031 354.714844 L 318.253906 355.085938 L 319.578125 355.460938 L 320.828125 355.890625 L 321.96875 356.320312 L 322.996094 356.765625 L 323.890625 357.25 L 324.710938 357.738281 L 325.402344 358.242188 L 326 358.78125 L 326.484375 359.34375 L 329.003906 362.722656 L 331.023438 365.652344 L 331.898438 367.015625 L 332.683594 368.324219 L 333.410156 369.609375 L 334.066406 370.859375 L 334.664062 372.113281 L 335.203125 373.34375 L 335.671875 374.578125 L 336.101562 375.789062 L 336.453125 376.984375 L 336.753906 378.214844 L 336.996094 379.410156 L 337.183594 380.644531 L 337.371094 382.621094 L 337.40625 384.621094 L 337.371094 385.199219 L 337.238281 385.683594 L 337.050781 386.039062 L 336.789062 386.300781 L 336.453125 386.449219 L 336.042969 386.488281 L 335.558594 386.414062 Z M 335 386.226562 " fill-opacity="1" fill-rule="nonzero"/><path fill="#0050dc" d="M 221.605469 386.503906 L 218.429688 386.039062 L 215.21875 385.703125 L 211.953125 385.460938 L 208.667969 385.347656 L 208.3125 385.3125 L 207.976562 385.21875 L 207.546875 384.972656 L 207.191406 384.65625 L 206.929688 384.265625 L 206.761719 383.816406 L 206.707031 383.332031 L 206.761719 382.847656 L 206.929688 382.398438 L 207.210938 382.007812 L 209.246094 379.765625 L 211.09375 377.804688 L 212.867188 375.996094 L 214.605469 374.351562 L 216.304688 372.800781 L 217.945312 371.421875 L 219.550781 370.152344 L 221.136719 369.03125 L 222.652344 368.042969 L 224.144531 367.183594 L 225.601562 366.457031 L 227 365.875 L 228.34375 365.445312 L 229.671875 365.148438 L 230.921875 364.980469 L 232.132812 364.960938 L 234.992188 365.109375 L 237.789062 365.316406 L 240.515625 365.558594 L 243.167969 365.859375 L 245.742188 366.210938 L 248.246094 366.625 L 250.671875 367.089844 L 253.042969 367.59375 L 253.679688 367.78125 L 254.183594 368.042969 L 254.535156 368.339844 L 254.648438 368.507812 L 254.742188 368.695312 L 254.816406 369.085938 L 254.742188 369.554688 L 254.519531 370.058594 L 254.164062 370.617188 L 252.332031 373.175781 L 250.558594 375.828125 L 248.84375 378.570312 L 247.164062 381.410156 L 246.808594 381.929688 L 246.378906 382.417969 L 245.835938 382.902344 L 245.203125 383.40625 L 244.472656 383.875 L 243.652344 384.359375 L 242.71875 384.824219 L 241.691406 385.292969 L 240.574219 385.738281 L 239.378906 386.1875 L 236.691406 387.046875 L 233.648438 387.867188 L 230.042969 388.726562 L 229.820312 388.78125 L 229.335938 388.859375 L 228.828125 388.875 L 228.308594 388.839844 L 227.746094 388.726562 L 227.167969 388.578125 L 226.535156 388.355469 L 224.871094 387.664062 L 223.769531 387.175781 L 222.988281 386.878906 L 222.257812 386.65625 Z M 221.605469 386.503906 " fill-opacity="1" fill-rule="nonzero"/><path fill="#0050dc" d="M 279.609375 396.230469 L 278.84375 395.316406 L 278.039062 394.441406 L 277.238281 393.597656 L 276.398438 392.796875 L 275.558594 392.03125 L 274.679688 391.304688 L 273.785156 390.59375 L 272.871094 389.941406 L 271.953125 389.324219 L 271.003906 388.726562 L 270.03125 388.1875 L 269.023438 387.664062 L 267.996094 387.160156 L 266.933594 386.691406 L 265.851562 386.261719 L 264.730469 385.851562 L 262.394531 385.125 L 259.914062 384.488281 L 257.242188 383.964844 L 254.367188 383.539062 L 254.125 383.480469 L 253.863281 383.371094 L 253.640625 383.183594 L 253.453125 382.957031 L 253.324219 382.714844 L 253.25 382.4375 L 253.230469 382.136719 L 253.285156 381.855469 L 253.398438 381.59375 L 253.601562 381.203125 L 255.207031 378.402344 L 256.570312 376.238281 L 257.242188 375.265625 L 257.914062 374.371094 L 258.570312 373.550781 L 259.203125 372.820312 L 259.855469 372.167969 L 260.492188 371.589844 L 261.144531 371.085938 L 261.761719 370.65625 L 262.378906 370.320312 L 263.011719 370.058594 L 263.609375 369.890625 L 264.226562 369.796875 L 268.425781 369.347656 L 272.570312 368.75 L 274.625 368.398438 L 276.660156 368.003906 L 278.675781 367.59375 L 280.691406 367.128906 L 281.417969 366.976562 L 282.148438 366.867188 L 282.914062 366.792969 L 283.679688 366.773438 L 284.480469 366.773438 L 285.300781 366.828125 L 286.964844 367.035156 L 288.683594 367.40625 L 290.457031 367.910156 L 292.265625 368.601562 L 294.113281 369.40625 L 296.019531 370.414062 L 297.921875 371.535156 L 299.769531 372.785156 L 301.582031 374.148438 L 303.28125 375.585938 L 304.847656 377.058594 L 306.230469 378.554688 L 307.386719 380.007812 L 307.613281 380.34375 L 307.761719 380.699219 L 307.835938 381.035156 L 307.855469 381.351562 L 307.796875 381.6875 L 307.667969 382.023438 L 307.480469 382.359375 L 307.199219 382.679688 L 304.679688 385.179688 L 303.410156 386.355469 L 302.121094 387.496094 L 300.835938 388.597656 L 299.527344 389.660156 L 298.222656 390.667969 L 296.914062 391.640625 L 295.589844 392.554688 L 294.261719 393.433594 L 292.917969 394.273438 L 291.574219 395.074219 L 290.210938 395.820312 L 288.847656 396.53125 L 287.488281 397.203125 L 286.105469 397.820312 L 285.265625 398.097656 L 284.367188 398.25 L 283.472656 398.25 L 282.59375 398.117188 L 281.738281 397.835938 L 280.953125 397.40625 L 280.222656 396.886719 Z M 279.609375 396.230469 " fill-opacity="1" fill-rule="nonzero"/><g clip-path="url(#9dc59c96e2)"><path fill="#0050dc" d="M 387.679688 414.675781 L 385.347656 414.058594 L 382.847656 413.464844 L 380.175781 412.902344 L 377.339844 412.363281 L 374.332031 411.859375 L 371.179688 411.390625 L 367.835938 410.941406 L 364.328125 410.511719 L 363.898438 410.402344 L 363.730469 410.308594 L 363.597656 410.175781 L 363.503906 410.027344 L 363.449219 409.839844 L 363.429688 409.375 L 363.746094 406.3125 L 363.953125 403.195312 L 364.046875 400.003906 L 364.046875 396.773438 L 363.953125 393.488281 L 363.746094 390.144531 L 363.429688 386.75 L 363.019531 383.292969 L 363.019531 382.828125 L 363.074219 382.621094 L 363.152344 382.417969 L 363.410156 382.101562 L 363.804688 381.855469 L 366.753906 380.492188 L 369.816406 379.167969 L 372.953125 377.878906 L 376.199219 376.628906 L 378.179688 375.9375 L 380.175781 375.359375 L 382.136719 374.894531 L 384.117188 374.539062 L 386.074219 374.296875 L 388.054688 374.164062 L 389.996094 374.148438 L 391.957031 374.222656 L 393.1875 374.332031 L 394.421875 374.5 L 395.671875 374.707031 L 396.886719 374.949219 L 398.117188 375.230469 L 399.332031 375.585938 L 400.5625 375.957031 L 401.777344 376.386719 L 402.972656 376.855469 L 404.164062 377.375 L 405.378906 377.9375 L 406.554688 378.535156 L 407.75 379.1875 L 408.925781 379.878906 L 410.101562 380.625 L 411.257812 381.410156 L 412.417969 382.230469 L 413.554688 383.109375 L 414.714844 384.023438 L 415.832031 384.972656 L 416.972656 385.964844 L 418.074219 387.007812 L 420.277344 389.210938 L 422.421875 391.566406 L 424.515625 394.085938 L 426.550781 396.753906 L 428.527344 399.554688 L 430.078125 401.886719 L 431.550781 404.257812 L 432.988281 406.613281 L 434.351562 409 L 435.660156 411.410156 L 436.890625 413.816406 L 438.085938 416.246094 L 439.207031 418.691406 L 440.269531 421.136719 L 441.261719 423.601562 L 442.210938 426.101562 L 443.089844 428.585938 L 443.910156 431.105469 L 444.675781 433.625 L 445.367188 436.183594 L 446.019531 438.738281 L 446.804688 442.363281 L 447.496094 446.003906 L 448.054688 449.679688 L 448.484375 453.394531 L 448.800781 457.128906 L 449.007812 460.898438 L 449.082031 464.691406 L 449.046875 468.515625 L 448.96875 469.75 L 448.800781 470.980469 L 448.617188 471.859375 L 448.390625 472.734375 L 448.113281 473.613281 L 447.792969 474.472656 L 447.421875 475.332031 L 446.992188 476.191406 L 446.523438 477.03125 L 446.003906 477.851562 L 445.703125 478.222656 L 445.328125 478.542969 L 444.917969 478.765625 L 444.453125 478.914062 L 443.554688 479.046875 L 442.699219 479.066406 L 441.914062 478.953125 L 441.167969 478.710938 L 440.699219 478.484375 L 440.269531 478.1875 L 439.839844 477.851562 L 439.449219 477.441406 L 439.09375 476.992188 L 438.738281 476.488281 L 438.421875 475.910156 L 438.125 475.292969 L 436.910156 472.566406 L 435.640625 469.859375 L 434.351562 467.171875 L 433.027344 464.523438 L 431.683594 461.871094 L 430.300781 459.238281 L 428.863281 456.625 L 427.425781 454.03125 L 425.878906 451.378906 L 424.308594 448.726562 L 422.703125 446.113281 L 421.0625 443.519531 L 420.015625 441.988281 L 418.96875 440.589844 L 417.886719 439.335938 L 416.804688 438.238281 L 415.683594 437.285156 L 414.5625 436.464844 L 413.40625 435.789062 L 412.25 435.25 L 410.457031 434.519531 L 408.890625 433.832031 L 407.46875 433.140625 L 406.164062 432.449219 L 404.949219 431.722656 L 403.828125 430.972656 L 402.765625 430.152344 L 401.777344 429.3125 L 400.992188 428.566406 L 400.226562 427.761719 L 399.5 426.921875 L 398.808594 426.027344 L 398.117188 425.074219 L 397.445312 424.066406 L 396.792969 422.984375 L 396.15625 421.84375 L 395.617188 420.894531 L 395.019531 419.996094 L 394.402344 419.175781 L 393.75 418.410156 L 393.058594 417.699219 L 392.328125 417.066406 L 391.5625 416.488281 L 390.742188 415.964844 L 390.035156 415.574219 L 389.269531 415.238281 L 388.484375 414.917969 Z M 387.679688 414.675781 " fill-opacity="1" fill-rule="nonzero"/></g><path fill="#0050dc" d="M 357.960938 385.273438 L 358.371094 387.625 L 358.707031 389.976562 L 358.96875 392.328125 L 359.175781 394.664062 L 359.304688 397.015625 L 359.363281 399.347656 L 359.363281 401.683594 L 359.285156 404.015625 L 359.101562 406.722656 L 358.839844 409.429688 L 358.484375 412.136719 L 358.015625 414.84375 L 357.476562 417.53125 L 356.839844 420.222656 L 356.09375 422.910156 L 355.273438 425.597656 L 354.992188 426.25 L 354.621094 426.828125 L 354.152344 427.351562 L 353.609375 427.800781 L 353.144531 428.082031 L 352.695312 428.265625 L 352.25 428.34375 L 351.820312 428.34375 L 351.390625 428.230469 L 350.980469 428.023438 L 350.585938 427.726562 L 350.195312 427.332031 L 346.628906 423.113281 L 343.082031 418.839844 L 342.726562 418.355469 L 342.429688 417.792969 L 342.222656 417.195312 L 342.054688 416.542969 L 341.980469 415.832031 L 341.960938 415.105469 L 342.035156 414.359375 L 342.167969 413.613281 L 342.691406 411.128906 L 343.136719 408.644531 L 343.492188 406.164062 L 343.773438 403.699219 L 343.976562 401.234375 L 344.089844 398.753906 L 344.109375 396.289062 L 344.054688 393.84375 L 343.941406 391.582031 L 343.734375 389.324219 L 343.472656 387.066406 L 343.136719 384.824219 L 343.042969 384.171875 L 343.027344 383.574219 L 343.027344 383.015625 L 343.101562 382.492188 L 343.210938 382.007812 L 343.363281 381.578125 L 343.585938 381.183594 L 343.828125 380.832031 L 344.144531 380.53125 L 344.5 380.269531 L 344.910156 380.046875 L 345.378906 379.859375 L 345.882812 379.730469 L 346.421875 379.636719 L 347.039062 379.578125 L 347.691406 379.578125 L 351.332031 379.652344 L 352.023438 379.691406 L 352.660156 379.765625 L 353.273438 379.878906 L 353.855469 380.046875 L 354.394531 380.25 L 354.898438 380.496094 L 355.367188 380.792969 L 355.796875 381.109375 L 356.1875 381.484375 L 356.542969 381.894531 L 356.878906 382.359375 L 357.15625 382.863281 L 357.417969 383.40625 L 357.625 383.984375 L 357.8125 384.601562 Z M 357.960938 385.273438 " fill-opacity="1" fill-rule="nonzero"/><path fill="#0050dc" d="M 287.710938 402.972656 L 289.820312 402.054688 L 291.894531 401.066406 L 293.925781 399.984375 L 295.90625 398.84375 L 297.550781 397.835938 L 299.15625 396.753906 L 300.722656 395.632812 L 302.253906 394.457031 L 303.765625 393.226562 L 305.257812 391.957031 L 306.695312 390.613281 L 308.117188 389.230469 L 309.011719 388.429688 L 309.476562 388.09375 L 309.945312 387.773438 L 310.429688 387.511719 L 310.914062 387.289062 L 311.421875 387.121094 L 311.925781 386.972656 L 312.726562 386.824219 L 313.546875 386.765625 L 314.40625 386.824219 L 315.265625 386.953125 L 320.121094 388.015625 L 325.085938 389.175781 L 330.144531 390.445312 L 335.277344 391.824219 L 335.800781 392.011719 L 336.285156 392.292969 L 336.734375 392.628906 L 337.109375 393.039062 L 337.425781 393.507812 L 337.667969 394.011719 L 337.816406 394.53125 L 337.890625 395.09375 L 337.96875 396.792969 L 337.984375 398.472656 L 337.96875 400.152344 L 337.910156 401.8125 L 337.796875 403.476562 L 337.628906 405.136719 L 337.445312 406.78125 L 337.183594 408.421875 L 336.808594 410.53125 L 336.695312 410.980469 L 336.492188 411.597656 L 336.230469 412.210938 L 335.894531 412.808594 L 335.484375 413.40625 L 335.015625 414.003906 L 334.457031 414.621094 L 332.890625 416.152344 L 331.789062 417.195312 L 331.023438 417.980469 L 330.367188 418.746094 L 329.828125 419.492188 L 327.660156 422.648438 L 325.457031 425.691406 L 323.179688 428.640625 L 320.867188 431.476562 L 318.476562 434.203125 L 316.03125 436.835938 L 313.53125 439.355469 L 310.972656 441.765625 L 310.691406 441.988281 L 310.394531 442.195312 L 310.074219 442.34375 L 309.738281 442.472656 L 309.402344 442.566406 L 309.050781 442.640625 L 308.695312 442.660156 L 308.339844 442.640625 L 307.984375 442.585938 L 307.628906 442.492188 L 307.292969 442.363281 L 306.976562 442.210938 L 306.679688 442.007812 L 306.398438 441.78125 L 306.15625 441.539062 L 305.929688 441.261719 L 305.726562 440.960938 L 304.847656 439.503906 L 303.953125 438.050781 L 303 436.648438 L 302.046875 435.269531 L 301.039062 433.90625 L 300.011719 432.5625 L 298.96875 431.253906 L 297.867188 429.984375 L 296.28125 428.230469 L 294.636719 426.511719 L 292.9375 424.871094 L 291.164062 423.265625 L 289.355469 421.714844 L 287.46875 420.222656 L 285.507812 418.785156 L 283.511719 417.382812 L 283.15625 417.101562 L 282.839844 416.765625 L 282.558594 416.414062 L 282.335938 416 L 282.164062 415.589844 L 282.074219 415.144531 L 282.015625 414.675781 L 282.035156 414.226562 L 282.164062 413.144531 L 282.316406 412.101562 L 282.519531 411.09375 L 282.746094 410.121094 L 282.988281 409.226562 L 283.285156 408.367188 L 283.585938 407.5625 L 283.941406 406.835938 L 284.292969 406.144531 L 284.6875 405.527344 L 285.132812 404.949219 L 285.582031 404.445312 L 286.050781 403.996094 L 286.554688 403.605469 L 287.074219 403.269531 L 287.636719 403.007812 Z M 287.710938 402.972656 " fill-opacity="1" fill-rule="nonzero"/><path fill="#0050dc" d="M 241.414062 415.40625 L 240.722656 414.601562 L 239.9375 413.875 L 239.433594 413.464844 L 238.910156 413.109375 L 238.332031 412.773438 L 237.753906 412.472656 L 237.136719 412.195312 L 236.484375 411.949219 L 235.8125 411.746094 L 235.082031 411.558594 L 233.570312 411.296875 L 231.910156 411.128906 L 230.042969 411.074219 L 227.804688 411.109375 L 226.871094 411.035156 L 226.160156 410.90625 L 225.527344 410.738281 L 224.945312 410.53125 L 224.460938 410.308594 L 224.070312 410.046875 L 223.734375 409.765625 L 223.472656 409.449219 L 223.304688 409.113281 L 223.191406 408.738281 L 223.171875 408.328125 L 223.210938 407.917969 L 223.339844 407.453125 L 224.21875 404.988281 L 225.152344 402.671875 L 226.140625 400.488281 L 227.167969 398.453125 L 227.558594 397.78125 L 227.972656 397.183594 L 228.417969 396.644531 L 228.921875 396.136719 L 229.371094 395.746094 L 229.875 395.390625 L 230.417969 395.054688 L 231.015625 394.738281 L 232.359375 394.160156 L 234.320312 393.488281 L 235.699219 393.039062 L 238.875 391.882812 L 240.945312 391.136719 L 242.457031 390.613281 L 243.820312 390.203125 L 245.109375 389.902344 L 246.339844 389.679688 L 247.554688 389.546875 L 248.730469 389.511719 L 249.90625 389.546875 L 251.269531 389.734375 L 252.652344 390.035156 L 255.207031 390.78125 L 257.730469 391.640625 L 260.191406 392.589844 L 262.601562 393.65625 L 264.542969 394.609375 L 266.445312 395.632812 L 268.332031 396.734375 L 270.179688 397.914062 L 271.992188 399.144531 L 273.765625 400.449219 L 275.5 401.832031 L 277.21875 403.289062 L 277.574219 403.699219 L 277.796875 404.128906 L 277.855469 404.613281 L 277.796875 405.117188 L 277.59375 405.996094 L 276.9375 408.738281 L 276.359375 410.757812 L 275.726562 412.53125 L 275.390625 413.3125 L 275.035156 414.058594 L 274.640625 414.769531 L 274.230469 415.421875 L 273.785156 416.039062 L 273.316406 416.597656 L 272.851562 417.121094 L 272.328125 417.589844 L 271.785156 418.019531 L 271.207031 418.410156 L 268.78125 419.847656 L 266.335938 421.15625 L 263.851562 422.332031 L 261.371094 423.414062 L 258.847656 424.367188 L 256.328125 425.1875 L 253.769531 425.894531 L 251.195312 426.492188 L 250.710938 426.550781 L 250.242188 426.53125 L 249.777344 426.4375 L 249.308594 426.289062 L 248.898438 426.0625 L 248.507812 425.765625 L 248.1875 425.429688 L 247.910156 425.039062 L 246.359375 422.5 L 244.753906 420.054688 L 243.109375 417.683594 Z M 241.414062 415.40625 " fill-opacity="1" fill-rule="nonzero"/><path fill="#0050dc" d="M 222.835938 395.054688 L 221.808594 396.808594 L 220.859375 398.566406 L 219.738281 400.878906 L 218.730469 403.269531 L 217.777344 405.789062 L 216.917969 408.421875 L 216.75 408.890625 L 216.546875 409.355469 L 216.304688 409.785156 L 216.023438 410.195312 L 215.707031 410.570312 L 215.351562 410.925781 L 214.960938 411.261719 L 214.546875 411.539062 L 206.519531 416.636719 L 198.53125 421.863281 L 197.632812 422.386719 L 196.71875 422.777344 L 195.804688 423.039062 L 194.890625 423.152344 L 194.085938 423.152344 L 193.285156 423.039062 L 192.480469 422.835938 L 191.679688 422.535156 L 191.289062 422.386719 L 190.875 422.273438 L 190.222656 422.179688 L 189.550781 422.179688 L 180.214844 422.761719 L 179.972656 422.742188 L 179.730469 422.683594 L 179.527344 422.554688 L 179.339844 422.40625 L 179.207031 422.199219 L 179.117188 421.976562 L 179.078125 421.734375 L 179.097656 421.492188 L 179.171875 421.230469 L 180.589844 418.242188 L 182.25 415.011719 L 183.949219 411.839844 L 185.707031 408.796875 L 187.402344 405.996094 L 189.066406 403.402344 L 190.707031 401.011719 L 192.3125 398.882812 L 193.808594 397.035156 L 195.265625 395.429688 L 196.664062 394.046875 L 197.355469 393.46875 L 198.027344 392.925781 L 198.660156 392.460938 L 199.316406 392.050781 L 199.929688 391.695312 L 200.546875 391.414062 L 201.125 391.191406 L 201.703125 391.023438 L 202.265625 390.929688 L 202.804688 390.890625 L 205.027344 390.890625 L 207.230469 390.96875 L 209.414062 391.078125 L 211.597656 391.230469 L 213.78125 391.453125 L 215.949219 391.714844 L 218.113281 392.03125 L 220.261719 392.386719 L 221.792969 392.683594 L 222.128906 392.796875 L 222.425781 392.964844 L 222.667969 393.1875 L 222.875 393.46875 L 223.003906 393.785156 L 223.0625 394.140625 L 223.042969 394.476562 L 222.96875 394.8125 Z M 222.835938 395.054688 " fill-opacity="1" fill-rule="nonzero"/><path fill="#0050dc" d="M 193.320312 443.5 L 193.171875 443.5 L 192.96875 443.464844 L 192.761719 443.390625 L 192.574219 443.277344 L 192.425781 443.128906 L 192.3125 442.941406 L 192.238281 442.734375 L 192.222656 442.511719 L 192.238281 442.304688 L 192.761719 439.859375 L 193.304688 437.769531 L 193.917969 435.902344 L 194.609375 434.183594 L 194.984375 433.382812 L 195.394531 432.636719 L 195.824219 431.90625 L 196.289062 431.199219 L 196.757812 430.542969 L 197.28125 429.910156 L 197.800781 429.3125 L 198.382812 428.734375 L 199.277344 427.929688 L 200.25 427.203125 L 202.46875 425.597656 L 206.222656 422.925781 L 209.152344 420.929688 L 211.804688 419.269531 L 213.015625 418.558594 L 214.175781 417.925781 L 215.277344 417.382812 L 216.304688 416.917969 L 217.253906 416.523438 L 218.152344 416.226562 L 218.972656 416.019531 L 219.71875 415.890625 L 220.410156 415.832031 L 221.046875 415.871094 L 222.929688 416.113281 L 225.675781 416.449219 L 227.652344 416.785156 L 229.425781 417.195312 L 230.957031 417.683594 L 231.667969 417.980469 L 232.339844 418.277344 L 232.957031 418.613281 L 233.554688 418.988281 L 234.09375 419.378906 L 234.597656 419.808594 L 235.066406 420.257812 L 235.496094 420.742188 L 239.304688 425.523438 L 243.128906 430.488281 L 243.410156 430.953125 L 243.558594 431.441406 L 243.558594 431.964844 L 243.449219 432.484375 L 243.019531 433.585938 L 242.550781 434.613281 L 242.027344 435.585938 L 241.449219 436.480469 L 240.816406 437.320312 L 240.144531 438.085938 L 239.414062 438.777344 L 238.648438 439.410156 L 237.996094 439.859375 L 237.304688 440.289062 L 236.578125 440.644531 L 235.832031 440.980469 L 234.355469 441.558594 L 231.519531 442.585938 L 228.660156 443.519531 L 225.75 444.378906 L 222.820312 445.144531 L 219.851562 445.816406 L 216.863281 446.394531 L 213.820312 446.898438 L 210.757812 447.308594 L 210.253906 447.328125 L 209.769531 447.269531 L 209.226562 447.101562 L 208.722656 446.824219 L 207.695312 446.167969 L 206.613281 445.574219 L 205.15625 444.898438 L 203.644531 444.359375 L 202.078125 443.929688 L 200.453125 443.613281 L 198.753906 443.40625 L 197 443.3125 L 195.1875 443.351562 Z M 193.320312 443.5 " fill-opacity="1" fill-rule="nonzero"/><path fill="#0050dc" d="M 347.898438 437.582031 L 346.929688 439.414062 L 345.917969 441.1875 L 344.855469 442.921875 L 343.753906 444.640625 L 342.617188 446.300781 L 341.421875 447.925781 L 340.167969 449.511719 L 338.882812 451.042969 L 337.238281 452.890625 L 335.539062 454.683594 L 333.765625 456.402344 L 331.917969 458.0625 L 331.433594 458.453125 L 330.964844 458.789062 L 330.5 459.070312 L 330.050781 459.292969 L 329.585938 459.445312 L 329.136719 459.554688 L 328.6875 459.59375 L 328.257812 459.59375 L 327.8125 459.519531 L 327.382812 459.386719 L 326.953125 459.199219 L 326.523438 458.957031 L 326.113281 458.660156 L 325.683594 458.304688 L 325.289062 457.894531 L 324.878906 457.410156 L 322.996094 454.964844 L 321.277344 452.535156 L 319.671875 450.128906 L 318.234375 447.738281 L 317.933594 447.105469 L 317.730469 446.449219 L 317.636719 445.757812 L 317.636719 445.070312 L 317.730469 444.378906 L 317.933594 443.726562 L 318.234375 443.109375 L 318.625 442.53125 L 334.457031 422.589844 L 334.847656 422.179688 L 335.296875 421.863281 L 335.820312 421.640625 L 336.363281 421.507812 L 336.921875 421.472656 L 337.460938 421.546875 L 338.003906 421.734375 L 338.488281 422.011719 L 339.40625 422.683594 L 340.28125 423.414062 L 341.121094 424.195312 L 341.941406 425.039062 L 342.746094 425.933594 L 343.492188 426.902344 L 344.222656 427.914062 L 344.929688 428.976562 L 345.863281 430.359375 L 346.648438 431.535156 L 347.1875 432.410156 L 347.636719 433.214844 L 347.953125 433.960938 L 348.179688 434.6875 L 348.308594 435.378906 L 348.328125 436.050781 L 348.234375 436.667969 L 348.105469 437.132812 Z M 347.898438 437.582031 " fill-opacity="1" fill-rule="nonzero"/><path fill="#0050dc" d="M 300.515625 449.230469 L 298.894531 450.667969 L 297.269531 452.03125 L 295.609375 453.339844 L 293.925781 454.609375 L 292.210938 455.820312 L 290.492188 456.960938 L 288.738281 458.0625 L 286.964844 459.109375 L 285.46875 459.949219 L 283.941406 460.730469 L 282.410156 461.496094 L 280.839844 462.226562 L 279.253906 462.933594 L 277.648438 463.589844 L 276.003906 464.222656 L 274.363281 464.820312 L 272.664062 465.398438 L 270.945312 465.921875 L 267.4375 466.910156 L 263.777344 467.789062 L 259.96875 468.535156 L 259.390625 468.589844 L 258.8125 468.535156 L 258.25 468.367188 L 257.746094 468.105469 L 257.28125 467.75 L 256.890625 467.320312 L 256.609375 466.816406 L 256.402344 466.277344 L 255.9375 464.632812 L 255.453125 462.992188 L 254.929688 461.367188 L 254.367188 459.761719 L 253.566406 457.652344 L 252.707031 455.578125 L 251.792969 453.527344 L 250.820312 451.492188 L 249.777344 449.476562 L 248.695312 447.496094 L 247.515625 445.515625 L 246.304688 443.574219 L 246.042969 443.050781 L 245.875 442.492188 L 245.820312 441.914062 L 245.875 441.335938 L 246.0625 440.496094 L 246.304688 439.636719 L 246.601562 438.816406 L 246.9375 437.992188 L 247.292969 437.226562 L 247.703125 436.480469 L 248.152344 435.789062 L 248.636719 435.136719 L 249.121094 434.539062 L 249.664062 433.980469 L 250.222656 433.476562 L 250.804688 433.007812 L 251.402344 432.617188 L 252.015625 432.28125 L 252.652344 431.980469 L 253.324219 431.757812 L 253.847656 431.609375 L 255.527344 431.179688 L 257.1875 430.710938 L 258.847656 430.207031 L 260.472656 429.667969 L 262.320312 428.996094 L 264.152344 428.25 L 265.945312 427.464844 L 267.734375 426.625 L 269.492188 425.726562 L 271.246094 424.792969 L 272.960938 423.785156 L 274.679688 422.722656 L 275.277344 422.40625 L 275.914062 422.179688 L 276.566406 422.070312 L 277.238281 422.070312 L 277.910156 422.164062 L 278.542969 422.347656 L 279.160156 422.648438 L 279.703125 423.039062 L 282.78125 425.710938 L 285.75 428.453125 L 288.589844 431.273438 L 291.296875 434.148438 L 293.871094 437.117188 L 296.316406 440.140625 L 298.652344 443.257812 L 300.855469 446.433594 L 301.078125 446.824219 L 301.226562 447.195312 L 301.285156 447.550781 L 301.285156 447.90625 L 301.207031 448.261719 L 301.039062 448.597656 L 300.816406 448.914062 Z M 300.515625 449.230469 " fill-opacity="1" fill-rule="nonzero"/><path fill="#0050dc" d="M 166.941406 454.273438 L 174.765625 431.535156 L 174.953125 431.085938 L 175.195312 430.675781 L 175.492188 430.300781 L 175.867188 429.964844 L 176.203125 429.722656 L 176.59375 429.519531 L 177.003906 429.367188 L 177.417969 429.257812 L 185.835938 427.800781 L 186.210938 427.746094 L 186.5625 427.746094 L 186.9375 427.78125 L 187.3125 427.855469 L 187.664062 427.96875 L 188 428.117188 L 188.320312 428.304688 L 188.617188 428.527344 L 188.992188 428.902344 L 189.308594 429.332031 L 189.570312 429.777344 L 189.738281 430.285156 L 189.832031 430.804688 L 189.851562 431.328125 L 189.792969 431.851562 L 189.644531 432.355469 L 181.785156 453.824219 L 181.617188 454.179688 L 181.429688 454.496094 L 181.207031 454.8125 L 180.945312 455.09375 L 180.644531 455.355469 L 180.328125 455.578125 L 179.992188 455.746094 L 179.636719 455.898438 L 171.253906 458.660156 L 170.789062 458.773438 L 170.324219 458.828125 L 169.835938 458.808594 L 169.371094 458.734375 L 168.699219 458.492188 L 168.082031 458.117188 L 167.578125 457.632812 L 167.167969 457.035156 L 166.886719 456.382812 L 166.757812 455.671875 L 166.773438 454.964844 Z M 166.941406 454.273438 " fill-opacity="1" fill-rule="nonzero"/><path fill="#0050dc" d="M 166.644531 439.226562 L 165.058594 443.183594 L 163.65625 447.046875 L 162.425781 450.800781 L 161.363281 454.441406 L 160.484375 457.988281 L 160.109375 459.707031 L 159.792969 461.421875 L 159.511719 463.085938 L 159.269531 464.746094 L 159.066406 466.371094 L 158.914062 467.957031 L 158.859375 468.273438 L 158.785156 468.574219 L 158.671875 468.851562 L 158.503906 469.078125 L 158.335938 469.28125 L 158.132812 469.46875 L 157.609375 469.75 L 153.074219 471.578125 L 148.554688 473.238281 L 144.035156 474.769531 L 139.539062 476.152344 L 135.058594 477.367188 L 130.578125 478.429688 L 126.113281 479.363281 L 121.671875 480.128906 L 121.410156 480.167969 L 120.308594 480.316406 L 119.171875 480.425781 L 118.050781 480.484375 L 116.910156 480.503906 L 116.203125 480.445312 L 115.53125 480.316406 L 114.894531 480.109375 L 114.296875 479.8125 L 113.773438 479.457031 L 113.289062 479.007812 L 112.898438 478.523438 L 112.582031 477.964844 L 112.394531 477.515625 L 112.246094 477.03125 L 112.167969 476.527344 L 112.152344 476.023438 L 112.1875 475.5 L 112.28125 474.976562 L 112.429688 474.453125 L 112.636719 473.929688 L 113.476562 472.175781 L 114.371094 470.457031 L 115.34375 468.757812 L 116.371094 467.097656 L 117.472656 465.457031 L 118.648438 463.867188 L 119.878906 462.300781 L 121.148438 460.789062 L 122.511719 459.292969 L 123.929688 457.855469 L 125.40625 456.457031 L 126.917969 455.09375 L 128.523438 453.789062 L 130.148438 452.5 L 131.847656 451.285156 L 133.582031 450.109375 L 135.394531 448.972656 L 137.242188 447.886719 L 139.128906 446.859375 L 141.050781 445.890625 L 143.027344 444.957031 L 145.027344 444.097656 L 147.078125 443.296875 L 149.152344 442.546875 L 151.261719 441.875 L 153.371094 441.242188 L 155.519531 440.683594 L 157.664062 440.195312 L 159.832031 439.765625 L 162.015625 439.394531 L 164.199219 439.09375 L 166.382812 438.871094 L 166.496094 438.890625 L 166.589844 438.945312 L 166.644531 439.058594 L 166.664062 439.167969 Z M 166.644531 439.226562 " fill-opacity="1" fill-rule="nonzero"/><path fill="#0050dc" d="M 204.914062 463.160156 L 205.847656 461.589844 L 207.007812 459.445312 L 208.164062 457.222656 L 209.132812 455.652344 L 209.621094 454.964844 L 210.144531 454.308594 L 210.683594 453.710938 L 211.226562 453.171875 L 211.597656 452.871094 L 212.007812 452.628906 L 212.53125 452.441406 L 213.09375 452.332031 L 216.359375 451.921875 L 219.570312 451.398438 L 222.726562 450.78125 L 225.804688 450.070312 L 228.8125 449.269531 L 231.742188 448.355469 L 234.617188 447.347656 L 237.4375 446.226562 L 237.996094 446.058594 L 238.574219 445.984375 L 239.152344 446.003906 L 239.714844 446.152344 L 240.253906 446.375 L 240.742188 446.710938 L 241.152344 447.121094 L 241.488281 447.589844 L 242.738281 449.886719 L 243.933594 452.238281 L 245.054688 454.644531 L 246.097656 457.109375 L 247.070312 459.628906 L 247.964844 462.226562 L 248.804688 464.859375 L 249.570312 467.5625 L 249.664062 468.144531 L 249.625 468.722656 L 249.476562 469.28125 L 249.214844 469.804688 L 248.863281 470.253906 L 248.394531 470.625 L 247.890625 470.886719 L 247.332031 471.035156 L 247.050781 471.074219 L 244.605469 471.203125 L 242.160156 471.261719 L 239.714844 471.296875 L 237.230469 471.261719 L 234.765625 471.1875 L 232.265625 471.074219 L 229.761719 470.886719 L 227.261719 470.664062 L 224.742188 470.402344 L 222.203125 470.066406 L 219.664062 469.691406 L 217.105469 469.28125 L 214.546875 468.816406 L 211.972656 468.292969 L 209.378906 467.714844 L 206.78125 467.097656 L 206.277344 466.929688 L 205.832031 466.707031 L 205.417969 466.40625 L 205.046875 466.050781 L 204.820312 465.753906 L 204.636719 465.453125 L 204.523438 465.15625 L 204.449219 464.839844 L 204.429688 464.429688 L 204.523438 464.015625 L 204.671875 463.585938 Z M 204.914062 463.160156 " fill-opacity="1" fill-rule="nonzero"/><path fill="#0050dc" d="M 203.703125 454.046875 L 199.070312 462.09375 L 198.71875 462.582031 L 198.308594 462.992188 L 197.820312 463.328125 L 197.28125 463.570312 L 196.71875 463.71875 L 196.121094 463.757812 L 195.542969 463.699219 L 194.964844 463.53125 L 188.132812 460.84375 L 187.554688 460.546875 L 187.03125 460.132812 L 186.621094 459.628906 L 186.304688 459.050781 L 186.097656 458.4375 L 186.023438 457.78125 L 186.078125 457.128906 L 186.265625 456.492188 L 188.523438 450.929688 L 188.785156 450.40625 L 189.140625 449.941406 L 189.570312 449.550781 L 190.074219 449.230469 L 190.445312 449.0625 L 190.859375 448.933594 L 191.269531 448.878906 L 191.679688 448.859375 L 200.902344 449.0625 L 201.59375 449.15625 L 202.246094 449.382812 L 202.824219 449.734375 L 203.328125 450.222656 L 203.644531 450.632812 L 203.886719 451.082031 L 204.039062 451.566406 L 204.132812 452.070312 L 204.148438 452.59375 L 204.074219 453.097656 L 203.925781 453.582031 Z M 203.703125 454.046875 " fill-opacity="1" fill-rule="nonzero"/><path fill="#0050dc" d="M 300.910156 480.203125 L 300.332031 480.425781 L 299.789062 480.59375 L 299.25 480.707031 L 298.726562 480.78125 L 298.203125 480.820312 L 297.71875 480.78125 L 297.25 480.726562 L 296.785156 480.613281 L 296.261719 480.410156 L 295.757812 480.148438 L 295.273438 479.832031 L 294.824219 479.457031 L 294.375 479.007812 L 293.945312 478.484375 L 293.554688 477.925781 L 293.160156 477.273438 L 292.789062 476.601562 L 292.453125 475.835938 L 291.78125 474.117188 L 291.164062 472.121094 L 290.492188 469.46875 L 290.195312 468.273438 L 290.0625 467.566406 L 290.007812 466.875 L 290.0625 466.203125 L 290.210938 465.566406 L 290.492188 464.859375 L 290.921875 464.1875 L 291.480469 463.550781 L 292.171875 462.953125 L 295.960938 460.023438 L 299.621094 457.074219 L 303.148438 454.050781 L 306.566406 451.007812 L 307.089844 450.558594 L 307.59375 450.183594 L 308.097656 449.867188 L 308.621094 449.605469 L 309.125 449.417969 L 309.609375 449.289062 L 310.113281 449.230469 L 310.597656 449.214844 L 311.140625 449.289062 L 311.679688 449.4375 L 312.203125 449.660156 L 312.726562 449.960938 L 313.25 450.332031 L 313.773438 450.78125 L 314.296875 451.324219 L 314.800781 451.921875 L 315.84375 453.300781 L 316.851562 454.683594 L 317.824219 456.066406 L 318.71875 457.464844 L 319.578125 458.847656 L 320.398438 460.265625 L 321.164062 461.664062 L 321.875 463.085938 L 322.0625 463.605469 L 322.117188 464.128906 L 322.042969 464.597656 L 321.875 465.082031 L 321.351562 466.015625 L 320.71875 466.96875 L 319.988281 467.917969 L 319.128906 468.871094 L 318.160156 469.84375 L 317.09375 470.792969 L 315.902344 471.765625 L 314.59375 472.734375 L 313.175781 473.726562 L 311.664062 474.714844 L 310.039062 475.6875 L 308.320312 476.65625 L 306.511719 477.609375 L 304.660156 478.523438 L 302.777344 479.402344 Z M 300.910156 480.203125 " fill-opacity="1" fill-rule="nonzero"/><path fill="#0050dc" d="M 183.578125 467.078125 L 176.914062 481.902344 L 176.652344 482.367188 L 176.351562 482.816406 L 175.980469 483.191406 L 175.566406 483.527344 L 175.121094 483.824219 L 174.636719 484.03125 L 174.128906 484.199219 L 173.609375 484.273438 L 166.644531 484.945312 L 166.179688 484.964844 L 165.710938 484.925781 L 165.246094 484.851562 L 164.816406 484.703125 L 164.386719 484.515625 L 163.976562 484.273438 L 163.601562 483.992188 L 163.265625 483.675781 L 162.984375 483.300781 L 162.722656 482.910156 L 162.519531 482.5 L 162.371094 482.050781 L 162.257812 481.605469 L 162.203125 481.136719 L 162.203125 480.671875 L 162.257812 480.203125 L 164.367188 468.40625 L 164.496094 467.863281 L 164.703125 467.359375 L 164.984375 466.875 L 165.300781 466.445312 L 165.691406 466.050781 L 166.140625 465.714844 L 166.605469 465.457031 L 167.128906 465.25 L 178.648438 461.570312 L 179.152344 461.441406 L 179.695312 461.367188 L 180.21875 461.386719 L 180.738281 461.460938 L 181.242188 461.609375 L 181.730469 461.816406 L 182.175781 462.09375 L 182.605469 462.414062 L 183.035156 462.878906 L 183.390625 463.402344 L 183.671875 463.980469 L 183.855469 464.597656 L 183.933594 465.210938 L 183.914062 465.867188 L 183.800781 466.480469 Z M 183.578125 467.078125 " fill-opacity="1" fill-rule="nonzero"/><path fill="#0050dc" d="M 187.011719 471.261719 L 187.160156 470.832031 L 187.367188 470.421875 L 187.609375 470.027344 L 187.871094 469.675781 L 188.1875 469.339844 L 188.523438 469.039062 L 188.898438 468.777344 L 189.289062 468.535156 L 189.699219 468.347656 L 190.128906 468.199219 L 190.558594 468.085938 L 191.007812 468.03125 L 191.472656 468.011719 L 191.921875 468.050781 L 192.371094 468.105469 L 192.816406 468.21875 L 208.183594 473.054688 L 208.929688 473.3125 L 209.636719 473.632812 L 210.3125 474.023438 L 210.945312 474.453125 L 211.523438 474.9375 L 212.066406 475.480469 L 212.550781 476.058594 L 212.960938 476.65625 L 213.316406 477.289062 L 213.597656 477.964844 L 213.800781 478.636719 L 213.933594 479.308594 L 214.007812 479.996094 L 213.988281 480.6875 L 213.894531 481.359375 L 213.726562 482.015625 L 211.933594 487.765625 L 211.691406 488.398438 L 211.375 488.996094 L 211 489.574219 L 210.554688 490.097656 L 210.050781 490.582031 L 209.507812 491.011719 L 208.890625 491.40625 L 208.238281 491.722656 L 207.546875 491.984375 L 206.839844 492.167969 L 206.089844 492.300781 L 205.324219 492.375 L 204.5625 492.375 L 203.777344 492.300781 L 203.011719 492.167969 L 202.265625 491.964844 L 186.882812 487.148438 L 186.453125 486.980469 L 186.042969 486.792969 L 185.667969 486.550781 L 185.292969 486.289062 L 184.957031 485.972656 L 184.660156 485.636719 L 184.398438 485.261719 L 184.15625 484.871094 L 183.96875 484.460938 L 183.820312 484.03125 L 183.726562 483.582031 L 183.652344 483.132812 L 183.632812 482.6875 L 183.671875 482.238281 L 183.726562 481.789062 L 183.855469 481.339844 Z M 187.011719 471.261719 " fill-opacity="1" fill-rule="nonzero"/><path fill="#0050dc" d="M 257.730469 474.585938 L 259.914062 474.265625 L 261.648438 473.949219 L 263.367188 473.574219 L 265.121094 473.148438 L 266.914062 472.640625 L 268.707031 472.082031 L 270.648438 471.449219 L 275.652344 469.636719 L 280.785156 467.789062 L 281.289062 467.65625 L 281.792969 467.621094 L 282.316406 467.675781 L 282.820312 467.808594 L 283.285156 468.03125 L 283.695312 468.332031 L 284.070312 468.683594 L 284.371094 469.113281 L 285.058594 470.347656 L 285.695312 471.597656 L 286.273438 472.902344 L 286.816406 474.25 L 287.320312 475.609375 L 287.75 477.03125 L 288.140625 478.46875 L 288.496094 479.960938 L 288.605469 480.539062 L 288.664062 481.117188 L 288.683594 481.660156 L 288.664062 482.164062 L 288.605469 482.667969 L 288.496094 483.132812 L 288.34375 483.601562 L 288.160156 484.03125 L 287.933594 484.421875 L 287.671875 484.796875 L 287.375 485.132812 L 287.019531 485.46875 L 286.648438 485.785156 L 286.234375 486.066406 L 285.285156 486.589844 L 282.78125 487.707031 L 280.167969 488.714844 L 277.441406 489.648438 L 274.625 490.488281 L 271.691406 491.238281 L 268.648438 491.890625 L 265.515625 492.46875 L 262.265625 492.933594 L 261.539062 493.011719 L 260.847656 493.027344 L 260.210938 492.992188 L 259.597656 492.898438 L 259.035156 492.765625 L 258.511719 492.582031 L 258.027344 492.339844 L 257.597656 492.039062 L 257.1875 491.683594 L 256.832031 491.292969 L 256.515625 490.824219 L 256.234375 490.320312 L 255.992188 489.761719 L 255.789062 489.164062 L 255.621094 488.492188 L 255.507812 487.78125 L 254.332031 479.027344 L 254.273438 478.09375 L 254.292969 477.664062 L 254.351562 477.273438 L 254.425781 476.898438 L 254.554688 476.542969 L 254.722656 476.226562 L 254.910156 475.945312 L 255.132812 475.683594 L 255.414062 475.441406 L 255.710938 475.238281 L 256.050781 475.050781 L 256.8125 474.769531 Z M 257.730469 474.585938 " fill-opacity="1" fill-rule="nonzero"/><path fill="#0050dc" d="M 219.71875 479.269531 L 220.035156 478.578125 L 220.449219 477.964844 L 220.96875 477.421875 L 221.566406 476.953125 L 222.238281 476.617188 L 222.949219 476.375 L 223.695312 476.246094 L 224.441406 476.246094 L 226.886719 476.433594 L 229.332031 476.5625 L 231.761719 476.675781 L 234.167969 476.730469 L 236.578125 476.75 L 238.96875 476.730469 L 241.355469 476.65625 L 243.726562 476.542969 L 244.34375 476.527344 L 244.902344 476.5625 L 245.445312 476.617188 L 245.949219 476.730469 L 246.414062 476.878906 L 246.84375 477.066406 L 247.253906 477.308594 L 247.609375 477.570312 L 247.945312 477.890625 L 248.226562 478.242188 L 248.488281 478.652344 L 248.710938 479.082031 L 248.898438 479.570312 L 249.046875 480.089844 L 249.179688 480.652344 L 249.253906 481.25 L 250 488.042969 L 250.054688 488.828125 L 250.054688 489.574219 L 250.019531 490.265625 L 249.90625 490.917969 L 249.738281 491.535156 L 249.515625 492.09375 L 249.253906 492.617188 L 248.917969 493.085938 L 248.527344 493.53125 L 248.078125 493.90625 L 247.574219 494.261719 L 247.03125 494.558594 L 246.414062 494.800781 L 245.742188 495.027344 L 245.015625 495.195312 L 244.230469 495.308594 L 241.636719 495.605469 L 239.136719 495.828125 L 236.78125 495.996094 L 234.542969 496.089844 L 232.414062 496.128906 L 230.417969 496.089844 L 228.570312 495.996094 L 226.832031 495.828125 L 225.265625 495.585938 L 223.808594 495.304688 L 222.519531 494.933594 L 221.363281 494.523438 L 220.335938 494.039062 L 219.476562 493.476562 L 218.730469 492.859375 L 218.429688 492.542969 L 218.152344 492.1875 L 217.890625 491.757812 L 217.722656 491.292969 L 217.609375 490.808594 L 217.589844 490.320312 L 217.648438 489.035156 L 217.757812 487.746094 L 218.058594 485.597656 L 218.46875 483.472656 L 219.027344 481.359375 Z M 219.71875 479.269531 " fill-opacity="1" fill-rule="nonzero"/><g clip-path="url(#dbbcdddce9)"><path fill="#0050dc" d="M 221.121094 500.179688 L 219.960938 503.089844 L 218.691406 505.929688 L 217.347656 508.671875 L 215.910156 511.34375 L 214.398438 513.917969 L 212.773438 516.402344 L 211.09375 518.773438 L 209.320312 521.070312 L 207.472656 523.253906 L 205.53125 525.34375 L 203.535156 527.304688 L 201.441406 529.191406 L 199.316406 530.945312 L 197.074219 532.605469 L 194.796875 534.136719 L 192.425781 535.574219 L 190.261719 536.769531 L 188.019531 537.871094 L 185.742188 538.859375 L 183.410156 539.773438 L 181.058594 540.597656 L 178.628906 541.324219 L 176.164062 541.941406 L 173.644531 542.480469 L 172.171875 542.742188 L 170.695312 542.949219 L 169.277344 543.117188 L 167.894531 543.210938 L 166.589844 543.265625 L 165.375 543.265625 L 164.238281 543.210938 L 163.171875 543.117188 L 162.21875 542.949219 L 161.34375 542.742188 L 160.539062 542.480469 L 159.847656 542.164062 L 159.234375 541.808594 L 158.730469 541.398438 L 158.300781 540.933594 L 157.964844 540.429688 L 157.738281 539.925781 L 157.589844 539.382812 L 157.496094 538.804688 L 157.496094 538.167969 L 157.570312 537.515625 L 157.722656 536.808594 L 157.925781 536.078125 L 158.226562 535.292969 L 158.933594 533.671875 L 159.71875 532.027344 L 160.578125 530.347656 L 161.53125 528.628906 L 162.539062 526.894531 L 163.65625 525.140625 L 164.832031 523.347656 L 166.101562 521.535156 L 176.128906 507.570312 L 185.964844 494.019531 L 186.132812 493.8125 L 186.339844 493.644531 L 186.582031 493.496094 L 186.824219 493.382812 L 187.085938 493.328125 L 187.347656 493.308594 L 187.628906 493.328125 L 187.890625 493.382812 L 192.050781 494.597656 L 196.195312 495.679688 L 200.304688 496.59375 L 204.394531 497.378906 L 208.425781 498.011719 L 212.4375 498.5 L 216.414062 498.851562 L 220.371094 499.039062 L 220.632812 499.058594 L 220.859375 499.132812 L 221.027344 499.207031 L 221.136719 499.339844 L 221.214844 499.507812 L 221.230469 499.695312 L 221.195312 499.917969 Z M 221.121094 500.179688 " fill-opacity="1" fill-rule="nonzero"/></g><path fill="#0050dc" d="M 1328.054688 340.660156 C 1326.355469 340.660156 1324.976562 342.035156 1324.976562 343.738281 C 1324.976562 345.433594 1326.355469 346.8125 1328.054688 346.8125 C 1329.753906 346.8125 1331.132812 345.433594 1331.132812 343.738281 C 1331.132812 342.035156 1329.753906 340.660156 1328.054688 340.660156 Z M 1328.054688 340.660156 " fill-opacity="1" fill-rule="nonzero"/><path fill="#0050dc" d="M 1334.722656 337.078125 C 1334.148438 336.5 1333.214844 336.496094 1332.640625 337.066406 C 1332.0625 337.640625 1332.054688 338.574219 1332.628906 339.152344 C 1333.851562 340.386719 1334.523438 342.011719 1334.523438 343.738281 C 1334.523438 345.460938 1333.851562 347.085938 1332.628906 348.320312 C 1332.054688 348.898438 1332.0625 349.832031 1332.640625 350.40625 C 1332.925781 350.6875 1333.300781 350.832031 1333.675781 350.832031 C 1334.054688 350.832031 1334.433594 350.6875 1334.722656 350.394531 C 1336.496094 348.605469 1337.46875 346.242188 1337.46875 343.738281 C 1337.46875 341.230469 1336.496094 338.867188 1334.722656 337.078125 Z M 1334.722656 337.078125 " fill-opacity="1" fill-rule="nonzero"/><g clip-path="url(#3e63484d91)"><path fill="#0050dc" d="M 1338.828125 332.960938 C 1338.253906 332.386719 1337.320312 332.386719 1336.746094 332.960938 C 1336.167969 333.535156 1336.167969 334.46875 1336.746094 335.046875 C 1339.0625 337.363281 1340.339844 340.449219 1340.339844 343.738281 C 1340.339844 347.023438 1339.0625 350.109375 1336.746094 352.425781 C 1336.167969 353.003906 1336.167969 353.9375 1336.746094 354.511719 C 1337.03125 354.796875 1337.410156 354.941406 1337.785156 354.941406 C 1338.164062 354.941406 1338.542969 354.796875 1338.828125 354.511719 C 1341.703125 351.636719 1343.289062 347.808594 1343.289062 343.738281 C 1343.289062 339.664062 1341.703125 335.835938 1338.828125 332.960938 Z M 1338.828125 332.960938 " fill-opacity="1" fill-rule="nonzero"/></g><path fill="#0050dc" d="M 1323.484375 337.066406 C 1322.90625 336.496094 1321.972656 336.5 1321.398438 337.078125 C 1319.628906 338.867188 1318.652344 341.230469 1318.652344 343.738281 C 1318.652344 346.242188 1319.628906 348.605469 1321.398438 350.394531 C 1321.6875 350.6875 1322.066406 350.832031 1322.445312 350.832031 C 1322.820312 350.832031 1323.195312 350.6875 1323.484375 350.40625 C 1324.0625 349.832031 1324.066406 348.898438 1323.492188 348.320312 C 1322.273438 347.085938 1321.597656 345.460938 1321.597656 343.738281 C 1321.597656 342.011719 1322.273438 340.386719 1323.492188 339.152344 C 1324.066406 338.574219 1324.0625 337.640625 1323.484375 337.066406 Z M 1323.484375 337.066406 " fill-opacity="1" fill-rule="nonzero"/><g clip-path="url(#4b4ab85015)"><path fill="#0050dc" d="M 1315.78125 343.738281 C 1315.78125 340.449219 1317.058594 337.363281 1319.378906 335.046875 C 1319.953125 334.46875 1319.953125 333.535156 1319.378906 332.960938 C 1318.800781 332.386719 1317.867188 332.386719 1317.292969 332.960938 C 1314.417969 335.835938 1312.835938 339.664062 1312.835938 343.738281 C 1312.835938 347.808594 1314.417969 351.636719 1317.292969 354.511719 C 1317.582031 354.796875 1317.957031 354.941406 1318.335938 354.941406 C 1318.710938 354.941406 1319.089844 354.796875 1319.378906 354.511719 C 1319.953125 353.9375 1319.953125 353.003906 1319.378906 352.425781 C 1317.058594 350.109375 1315.78125 347.023438 1315.78125 343.738281 Z M 1315.78125 343.738281 " fill-opacity="1" fill-rule="nonzero"/></g><g fill="#0050dc" fill-opacity="1"><g transform="translate(470.27725, 461.999997)"><g><path d="M 64.125 -112.109375 C 72.550781 -112.109375 79.878906 -110.960938 86.109375 -108.671875 C 92.347656 -106.378906 97.171875 -103.097656 100.578125 -98.828125 C 103.992188 -94.566406 105.703125 -89.554688 105.703125 -83.796875 C 105.703125 -77.929688 103.96875 -72.8125 100.5 -68.4375 C 97.039062 -64.070312 92.328125 -61.085938 86.359375 -59.484375 C 93.503906 -58.097656 99.128906 -54.847656 103.234375 -49.734375 C 107.335938 -44.617188 109.390625 -38.4375 109.390625 -31.1875 C 109.390625 -24.894531 107.628906 -19.375 104.109375 -14.625 C 100.585938 -9.882812 95.578125 -6.257812 89.078125 -3.75 C 82.578125 -1.25 74.953125 0 66.203125 0 L 10.875 0 L 10.875 -112.109375 Z M 62.53125 -67.484375 C 66.582031 -67.484375 69.78125 -68.46875 72.125 -70.4375 C 74.46875 -72.414062 75.640625 -75.164062 75.640625 -78.6875 C 75.640625 -82.09375 74.46875 -84.726562 72.125 -86.59375 C 69.78125 -88.457031 66.582031 -89.335938 62.53125 -89.234375 L 40.140625 -89.234375 L 40.140625 -67.484375 Z M 62.53125 -22.703125 C 67.644531 -22.703125 71.691406 -23.769531 74.671875 -25.90625 C 77.660156 -28.039062 79.15625 -31.023438 79.15625 -34.859375 C 79.15625 -38.378906 77.660156 -41.175781 74.671875 -43.25 C 71.691406 -45.332031 67.644531 -46.320312 62.53125 -46.21875 L 40.140625 -46.21875 L 40.140625 -22.703125 Z M 62.53125 -22.703125 "/></g></g></g><g fill="#0050dc" fill-opacity="1"><g transform="translate(584.77568, 461.999997)"><g><path d="M 11.671875 0 L 11.671875 -118.65625 L 40.140625 -118.65625 L 40.140625 0 Z M 11.671875 0 "/></g></g></g><g fill="#0050dc" fill-opacity="1"><g transform="translate(636.587819, 461.999997)"><g><path d="M 66.84375 -86.515625 L 95.3125 -86.515625 L 95.3125 0 L 66.84375 0 L 66.84375 -14.078125 C 60.976562 -4.054688 51.757812 1.0625 39.1875 1.28125 C 29.800781 1.28125 22.304688 -1.726562 16.703125 -7.75 C 11.109375 -13.78125 8.3125 -21.804688 8.3125 -31.828125 L 8.3125 -86.515625 L 36.78125 -86.515625 L 36.78125 -39.984375 C 36.78125 -35.078125 38.03125 -31.238281 40.53125 -28.46875 C 43.039062 -25.695312 46.425781 -24.3125 50.6875 -24.3125 C 55.707031 -24.414062 59.65625 -26.253906 62.53125 -29.828125 C 65.40625 -33.398438 66.84375 -38.0625 66.84375 -43.8125 Z M 66.84375 -86.515625 "/></g></g></g><g fill="#0050dc" fill-opacity="1"><g transform="translate(742.77072, 461.999997)"><g><path d="M 48.9375 -87.484375 C 63.007812 -87.484375 73.828125 -83.320312 81.390625 -75 C 88.960938 -66.6875 92.75 -55.28125 92.75 -40.78125 C 92.75 -38.539062 92.695312 -36.832031 92.59375 -35.65625 L 32.46875 -35.65625 C 33.851562 -30.757812 36.25 -27.003906 39.65625 -24.390625 C 43.070312 -21.773438 47.234375 -20.46875 52.140625 -20.46875 C 55.867188 -20.46875 59.460938 -21.210938 62.921875 -22.703125 C 66.390625 -24.203125 69.5625 -26.390625 72.4375 -29.265625 L 87.3125 -14.390625 C 82.832031 -9.378906 77.421875 -5.566406 71.078125 -2.953125 C 64.734375 -0.347656 57.566406 0.953125 49.578125 0.953125 C 40.296875 0.953125 32.191406 -0.859375 25.265625 -4.484375 C 18.335938 -8.109375 13.035156 -13.222656 9.359375 -19.828125 C 5.679688 -26.441406 3.84375 -34.117188 3.84375 -42.859375 C 3.84375 -51.703125 5.707031 -59.507812 9.4375 -66.28125 C 13.164062 -73.050781 18.441406 -78.273438 25.265625 -81.953125 C 32.085938 -85.640625 39.976562 -87.484375 48.9375 -87.484375 Z M 65.09375 -50.859375 C 65.09375 -55.867188 63.625 -59.890625 60.6875 -62.921875 C 57.757812 -65.960938 53.894531 -67.484375 49.09375 -67.484375 C 44.613281 -67.484375 40.851562 -65.988281 37.8125 -63 C 34.78125 -60.019531 32.785156 -55.972656 31.828125 -50.859375 Z M 65.09375 -50.859375 "/></g></g></g><g fill="#0050dc" fill-opacity="1"><g transform="translate(839.198862, 461.999997)"><g><path d="M 88.109375 -78.359375 C 82.140625 -81.878906 75.769531 -84.757812 69 -87 C 62.226562 -89.238281 56.550781 -90.359375 51.96875 -90.359375 C 48.34375 -90.359375 45.488281 -89.691406 43.40625 -88.359375 C 41.332031 -87.023438 40.296875 -85.078125 40.296875 -82.515625 C 40.296875 -80.066406 41.203125 -78.015625 43.015625 -76.359375 C 44.828125 -74.710938 47.066406 -73.378906 49.734375 -72.359375 C 52.398438 -71.347656 56.34375 -70.046875 61.5625 -68.453125 C 69.351562 -66.210938 75.78125 -63.972656 80.84375 -61.734375 C 85.90625 -59.492188 90.25 -56.050781 93.875 -51.40625 C 97.5 -46.769531 99.3125 -40.722656 99.3125 -33.265625 C 99.3125 -25.796875 97.335938 -19.421875 93.390625 -14.140625 C 89.453125 -8.867188 84.039062 -4.898438 77.15625 -2.234375 C 70.28125 0.429688 62.632812 1.765625 54.21875 1.765625 C 44.9375 1.765625 35.6875 0.140625 26.46875 -3.109375 C 17.25 -6.367188 9.28125 -10.820312 2.5625 -16.46875 L 13.90625 -39.34375 C 19.5625 -34.332031 26.253906 -30.226562 33.984375 -27.03125 C 41.710938 -23.832031 48.5625 -22.234375 54.53125 -22.234375 C 58.90625 -22.234375 62.34375 -23.03125 64.84375 -24.625 C 67.351562 -26.226562 68.609375 -28.578125 68.609375 -31.671875 C 68.609375 -34.222656 67.675781 -36.351562 65.8125 -38.0625 C 63.945312 -39.769531 61.597656 -41.128906 58.765625 -42.140625 C 55.941406 -43.148438 51.972656 -44.347656 46.859375 -45.734375 C 39.179688 -47.867188 32.835938 -50.03125 27.828125 -52.21875 C 22.816406 -54.40625 18.523438 -57.707031 14.953125 -62.125 C 11.378906 -66.550781 9.59375 -72.441406 9.59375 -79.796875 C 9.59375 -86.734375 11.429688 -92.8125 15.109375 -98.03125 C 18.785156 -103.257812 24.007812 -107.285156 30.78125 -110.109375 C 37.550781 -112.929688 45.414062 -114.34375 54.375 -114.34375 C 62.476562 -114.34375 70.472656 -113.195312 78.359375 -110.90625 C 86.253906 -108.613281 93.1875 -105.546875 99.15625 -101.703125 Z M 88.109375 -78.359375 "/></g></g></g><g fill="#0050dc" fill-opacity="1"><g transform="translate(942.5033, 461.999997)"><g><path d="M 48.9375 -87.484375 C 63.007812 -87.484375 73.828125 -83.320312 81.390625 -75 C 88.960938 -66.6875 92.75 -55.28125 92.75 -40.78125 C 92.75 -38.539062 92.695312 -36.832031 92.59375 -35.65625 L 32.46875 -35.65625 C 33.851562 -30.757812 36.25 -27.003906 39.65625 -24.390625 C 43.070312 -21.773438 47.234375 -20.46875 52.140625 -20.46875 C 55.867188 -20.46875 59.460938 -21.210938 62.921875 -22.703125 C 66.390625 -24.203125 69.5625 -26.390625 72.4375 -29.265625 L 87.3125 -14.390625 C 82.832031 -9.378906 77.421875 -5.566406 71.078125 -2.953125 C 64.734375 -0.347656 57.566406 0.953125 49.578125 0.953125 C 40.296875 0.953125 32.191406 -0.859375 25.265625 -4.484375 C 18.335938 -8.109375 13.035156 -13.222656 9.359375 -19.828125 C 5.679688 -26.441406 3.84375 -34.117188 3.84375 -42.859375 C 3.84375 -51.703125 5.707031 -59.507812 9.4375 -66.28125 C 13.164062 -73.050781 18.441406 -78.273438 25.265625 -81.953125 C 32.085938 -85.640625 39.976562 -87.484375 48.9375 -87.484375 Z M 65.09375 -50.859375 C 65.09375 -55.867188 63.625 -59.890625 60.6875 -62.921875 C 57.757812 -65.960938 53.894531 -67.484375 49.09375 -67.484375 C 44.613281 -67.484375 40.851562 -65.988281 37.8125 -63 C 34.78125 -60.019531 32.785156 -55.972656 31.828125 -50.859375 Z M 65.09375 -50.859375 "/></g></g></g><g fill="#0050dc" fill-opacity="1"><g transform="translate(1038.931442, 461.999997)"><g><path d="M 67.96875 -87.640625 C 77.457031 -87.640625 85.050781 -84.648438 90.75 -78.671875 C 96.457031 -72.703125 99.3125 -64.65625 99.3125 -54.53125 L 99.3125 0 L 71 0 L 71 -46.375 C 71 -51.28125 69.664062 -55.144531 67 -57.96875 C 64.34375 -60.789062 60.773438 -62.203125 56.296875 -62.203125 C 51.597656 -62.097656 47.726562 -60.550781 44.6875 -57.5625 C 41.65625 -54.582031 39.875 -50.640625 39.34375 -45.734375 L 39.34375 0 L 10.875 0 L 10.875 -86.515625 L 39.34375 -86.515625 L 39.34375 -72.4375 C 42.4375 -77.457031 46.40625 -81.242188 51.25 -83.796875 C 56.101562 -86.359375 61.675781 -87.640625 67.96875 -87.640625 Z M 67.96875 -87.640625 "/></g></g></g><g fill="#0050dc" fill-opacity="1"><g transform="translate(1146.713496, 461.999997)"><g><path d="M 68.609375 -59.171875 C 57.410156 -65.035156 48.238281 -67.96875 41.09375 -67.96875 C 38.644531 -67.96875 36.671875 -67.515625 35.171875 -66.609375 C 33.679688 -65.703125 32.9375 -64.34375 32.9375 -62.53125 C 32.9375 -60.613281 34.109375 -59.066406 36.453125 -57.890625 C 38.804688 -56.710938 42.539062 -55.429688 47.65625 -54.046875 C 53.84375 -52.234375 58.988281 -50.445312 63.09375 -48.6875 C 67.195312 -46.9375 70.738281 -44.273438 73.71875 -40.703125 C 76.707031 -37.128906 78.203125 -32.460938 78.203125 -26.703125 C 78.203125 -17.960938 74.816406 -11.113281 68.046875 -6.15625 C 61.273438 -1.195312 52.453125 1.28125 41.578125 1.28125 C 34.222656 1.28125 27.1875 0.242188 20.46875 -1.828125 C 13.75 -3.910156 7.78125 -6.976562 2.5625 -11.03125 L 11.515625 -29.421875 C 16.421875 -26.015625 21.5625 -23.375 26.9375 -21.5 C 32.320312 -19.632812 37.414062 -18.703125 42.21875 -18.703125 C 44.988281 -18.703125 47.195312 -19.15625 48.84375 -20.0625 C 50.5 -20.96875 51.328125 -22.273438 51.328125 -23.984375 C 51.328125 -26.117188 50.128906 -27.769531 47.734375 -28.9375 C 45.335938 -30.113281 41.582031 -31.394531 36.46875 -32.78125 C 30.382812 -34.59375 25.367188 -36.378906 21.421875 -38.140625 C 17.484375 -39.898438 14.046875 -42.535156 11.109375 -46.046875 C 8.179688 -49.566406 6.71875 -54.15625 6.71875 -59.8125 C 6.71875 -68.550781 10.019531 -75.398438 16.625 -80.359375 C 23.238281 -85.316406 31.769531 -87.796875 42.21875 -87.796875 C 48.507812 -87.796875 54.71875 -86.941406 60.84375 -85.234375 C 66.976562 -83.523438 72.765625 -81.019531 78.203125 -77.71875 Z M 68.609375 -59.171875 "/></g></g></g><g fill="#0050dc" fill-opacity="1"><g transform="translate(1229.389044, 461.999997)"><g><path d="M 48.9375 -87.484375 C 63.007812 -87.484375 73.828125 -83.320312 81.390625 -75 C 88.960938 -66.6875 92.75 -55.28125 92.75 -40.78125 C 92.75 -38.539062 92.695312 -36.832031 92.59375 -35.65625 L 32.46875 -35.65625 C 33.851562 -30.757812 36.25 -27.003906 39.65625 -24.390625 C 43.070312 -21.773438 47.234375 -20.46875 52.140625 -20.46875 C 55.867188 -20.46875 59.460938 -21.210938 62.921875 -22.703125 C 66.390625 -24.203125 69.5625 -26.390625 72.4375 -29.265625 L 87.3125 -14.390625 C 82.832031 -9.378906 77.421875 -5.566406 71.078125 -2.953125 C 64.734375 -0.347656 57.566406 0.953125 49.578125 0.953125 C 40.296875 0.953125 32.191406 -0.859375 25.265625 -4.484375 C 18.335938 -8.109375 13.035156 -13.222656 9.359375 -19.828125 C 5.679688 -26.441406 3.84375 -34.117188 3.84375 -42.859375 C 3.84375 -51.703125 5.707031 -59.507812 9.4375 -66.28125 C 13.164062 -73.050781 18.441406 -78.273438 25.265625 -81.953125 C 32.085938 -85.640625 39.976562 -87.484375 48.9375 -87.484375 Z M 65.09375 -50.859375 C 65.09375 -55.867188 63.625 -59.890625 60.6875 -62.921875 C 57.757812 -65.960938 53.894531 -67.484375 49.09375 -67.484375 C 44.613281 -67.484375 40.851562 -65.988281 37.8125 -63 C 34.78125 -60.019531 32.785156 -55.972656 31.828125 -50.859375 Z M 65.09375 -50.859375 "/></g></g></g></svg>